<svg xmlns="http://www.w3.org/2000/svg" viewBox="0 0 1700.78 1716.9">
  <style>
    .bg { fill: #373435; }
    .mark { fill: #f58634; stroke: #ffffff; stroke-width: 28.88; stroke-miterlimit: 22.9256; }
    .shape { fill: #fefefe; stroke: #ffffff; stroke-width: 28.88; stroke-miterlimit: 22.9256; }
  </style>
  <path class="bg" d="M850.39 88.11c141.54 0 274.98 33.16 392.38 91.74v462.69c-14.16-19.26-30.02-37.95-47.29-55.5-88.92-89.21-196.53-133.66-322.55-133.66-125.74 0-233.06 44.74-321.98 133.66-89.2 88.92-133.66 196.53-133.66 322.83 0 125.45 44.46 232.78 133.66 321.7 88.92 89.2 196.25 133.66 321.98 133.66 126.02 0 233.63-44.46 322.55-133.66 17.27-17.56 33.13-36.25 47.29-55.51v165.95h81.86V226.43c226.89 146.24 376.15 394.46 376.15 676.08 0 449.77-380.73 814.39-850.39 814.39S0 1352.28 0 902.51C0 452.73 380.73 88.11 850.39 88.11z"/>
  <path class="shape" d="m1375.16 1344.47-132.39-2.46v-165.95c-14.16 19.26-30.02 37.95-47.29 55.5-88.92 89.21-196.53 133.66-322.55 133.66-125.74 0-233.06-44.46-321.98-133.66-89.21-88.92-133.66-196.25-133.66-321.69 0-126.3 44.46-233.91 133.66-322.83 88.92-88.92 196.24-133.66 321.98-133.66 126.02 0 233.63 44.46 322.55 133.66 17.27 17.55 33.13 36.24 47.29 55.5V14.43h132.39v1330.03z"/>
  <path class="mark" d="M1202.74 976.34V848.21c-12.05-63.45-42.06-119.28-90.01-167.23-63.94-63.94-140.92-95.67-231.18-95.67-90.5 0-167.48 31.73-231.42 95.67-63.94 63.94-95.67 140.92-95.67 231.42 0 90.26 31.72 167.23 95.67 230.93 63.94 63.45 140.92 95.42 231.42 95.42 90.26 0 167.24-31.97 231.18-95.91 47.96-47.96 77.96-103.54 90.01-166.5z"/>
</svg>
