<?xml version="1.0" encoding="UTF-8"?>
<!DOCTYPE svg PUBLIC "-//W3C//DTD SVG 1.1//EN" "http://www.w3.org/Graphics/SVG/1.1/DTD/svg11.dtd">
<!-- Creator: CorelDRAW 2020 (64-Bit) -->
<svg xmlns="http://www.w3.org/2000/svg" xml:space="preserve" width="41.5536mm" height="39.7947mm" version="1.1" style="shape-rendering:geometricPrecision; text-rendering:geometricPrecision; image-rendering:optimizeQuality; fill-rule:evenodd; clip-rule:evenodd"
viewBox="0 0 3082.35 2951.88"
 xmlns:xlink="http://www.w3.org/1999/xlink"
 xmlns:xodm="http://www.corel.com/coreldraw/odm/2003">
 <defs>
  <style type="text/css">
   <![CDATA[
    .fil0 {fill:#FEFEFE}
    .fil1 {fill:#373435;fill-rule:nonzero}
    .fil2 {fill:#F58634;fill-rule:nonzero}
   ]]>
  </style>
 </defs>
 <g id="Capa_x0020_1">
  <metadata id="CorelCorpID_0Corel-Layer"/>
  <g id="_2157765259840">
   <path class="fil0" d="M1541.18 0c256.52,0 498.36,60.09 711.13,166.27l0 838.54c-25.66,-34.9 -54.4,-68.78 -85.7,-100.59 -161.15,-161.67 -356.18,-242.24 -584.56,-242.24 -227.87,0 -422.38,81.08 -583.53,242.24 -161.66,161.14 -242.23,356.17 -242.23,585.07 0,227.36 80.57,421.87 242.23,583.02 161.15,161.66 355.66,242.23 583.53,242.23 228.39,0 423.41,-80.58 584.56,-242.23 31.3,-31.82 60.05,-65.7 85.7,-100.6l0 300.75 148.35 0 0 -2021.79c411.2,265.04 681.7,714.89 681.7,1225.27 0,815.13 -690.01,1475.94 -1541.18,1475.94 -851.17,0 -1541.18,-660.8 -1541.18,-1475.94 0,-815.14 690.01,-1475.94 1541.18,-1475.94z"/>
   <path class="fil1" d="M2492.24 2276.92l-239.94 -4.46 0 -300.75c-25.66,34.91 -54.4,68.78 -85.7,100.59 -161.15,161.67 -356.18,242.24 -584.56,242.24 -227.87,0 -422.38,-80.57 -583.53,-242.24 -161.67,-161.14 -242.24,-355.66 -242.24,-583.01 0,-228.9 80.57,-423.93 242.24,-585.07 161.14,-161.15 355.65,-242.24 583.53,-242.24 228.39,0 423.41,80.57 584.56,242.24 31.3,31.81 60.05,65.68 85.7,100.59l0 -838.54c140.49,64.13 171.24,87.68 239.94,148.24l0 1962.42z"/>
   <path class="fil2" d="M2179.76 1609.75l0 -232.22c-21.84,-114.99 -76.22,-216.17 -163.13,-303.08 -115.88,-115.89 -255.39,-173.39 -418.97,-173.39 -164.02,0 -303.54,57.5 -419.42,173.39 -115.89,115.88 -173.38,255.39 -173.38,419.42 0,163.58 57.5,303.08 173.38,418.53 115.88,114.99 255.39,172.94 419.42,172.94 163.58,0 303.09,-57.95 418.97,-173.83 86.91,-86.91 141.29,-187.65 163.13,-301.75z"/>
  </g>
 </g>
</svg>
