<?xml version="1.0" encoding="UTF-8"?>
<!DOCTYPE svg PUBLIC "-//W3C//DTD SVG 1.1//EN" "http://www.w3.org/Graphics/SVG/1.1/DTD/svg11.dtd">
<!-- Creator: CorelDRAW 2020 (64-Bit) -->
<svg xmlns="http://www.w3.org/2000/svg" xml:space="preserve" width="41.5536mm" height="41.9475mm" version="1.1" style="shape-rendering:geometricPrecision; text-rendering:geometricPrecision; image-rendering:optimizeQuality; fill-rule:evenodd; clip-rule:evenodd"
viewBox="0 0 1700.78 1716.9"
 xmlns:xlink="http://www.w3.org/1999/xlink"
 xmlns:xodm="http://www.corel.com/coreldraw/odm/2003">
 <defs>
  <style type="text/css">
   <![CDATA[
    .str0 {stroke:white;stroke-width:28.88;stroke-miterlimit:22.9256}
    .fil0 {fill:#373435}
    .fil1 {fill:#FEFEFE;fill-rule:nonzero}
    .fil2 {fill:#F58634;fill-rule:nonzero}
   ]]>
  </style>
 </defs>
 <g id="Capa_x0020_1">
  <metadata id="CorelCorpID_0Corel-Layer"/>
  <g id="_2157765319120">
   <path class="fil0" d="M850.39 88.11c141.54,0 274.98,33.16 392.38,91.74l0 462.69c-14.16,-19.26 -30.02,-37.95 -47.29,-55.5 -88.92,-89.21 -196.53,-133.66 -322.55,-133.66 -125.74,0 -233.06,44.74 -321.98,133.66 -89.2,88.92 -133.66,196.53 -133.66,322.83 0,125.45 44.46,232.78 133.66,321.7 88.92,89.2 196.25,133.66 321.98,133.66 126.02,0 233.63,-44.46 322.55,-133.66 17.27,-17.56 33.13,-36.25 47.29,-55.51l0 165.95 81.86 0 0 -1115.58c226.89,146.24 376.15,394.46 376.15,676.08 0,449.77 -380.73,814.39 -850.39,814.39 -469.66,0 -850.39,-364.62 -850.39,-814.39 0,-449.78 380.73,-814.39 850.39,-814.39z"/>
   <path class="fil1 str0" d="M1375.16 1344.47l-132.39 -2.46 0 -165.95c-14.16,19.26 -30.02,37.95 -47.29,55.5 -88.92,89.21 -196.53,133.66 -322.55,133.66 -125.74,0 -233.06,-44.46 -321.98,-133.66 -89.21,-88.92 -133.66,-196.25 -133.66,-321.69 0,-126.3 44.46,-233.91 133.66,-322.83 88.92,-88.92 196.24,-133.66 321.98,-133.66 126.02,0 233.63,44.46 322.55,133.66 17.27,17.55 33.13,36.24 47.29,55.5l0 -628.11 132.39 0 0 1330.03z"/>
   <path class="fil2 str0" d="M1202.74 976.34l0 -128.13c-12.05,-63.45 -42.06,-119.28 -90.01,-167.23 -63.94,-63.94 -140.92,-95.67 -231.18,-95.67 -90.5,0 -167.48,31.73 -231.42,95.67 -63.94,63.94 -95.67,140.92 -95.67,231.42 0,90.26 31.72,167.23 95.67,230.93 63.94,63.45 140.92,95.42 231.42,95.42 90.26,0 167.24,-31.97 231.18,-95.91 47.96,-47.96 77.96,-103.54 90.01,-166.5z"/>
  </g>
 </g>
</svg>
